<!--?xml Version="1.0" encoding="UTF-8" standalone="no"?-->
<!-- Created with Inkscape (http://www.inkscape.org/) -->

<svg
   xmlns:dc="http://purl.org/dc/elements/1.1/"
   xmlns:cc="http://creativecommons.org/ns#"
   xmlns:rdf="http://www.w3.org/1999/02/22-rdf-syntax-ns#"
   xmlns:svg="http://www.w3.org/2000/svg"
   xmlns="http://www.w3.org/2000/svg"
   xmlns:sodipodi="http://sodipodi.sourceforge.net/DTD/sodipodi-0.dtd"
   xmlns:inkscape="http://www.inkscape.org/namespaces/inkscape"
   width="297mm"
   height="210mm"
   viewBox="0 0 297 210"
   Version="1.1"
   id="svg8"
   inkscape:Version="0.92.4 (5da689c313, 2019-01-14)"
   sodipodi:docname="404.svg">
  <defs
     id="defs2">
    <clipPath
       id="_clipPath_rrYKD88vPa7RWqqlMOwlVeO4WfeDkQSl">
      <rect
         y="0"
         x="0"
         width="560"
         height="600"
         id="rect2" />
    </clipPath>
    <clipPath
       id="_clipPath_rrYKD88vPa7RWqqlMOwlVeO4WfeDkQSl-6">
      <rect
         y="0"
         x="0"
         width="560"
         height="600"
         id="rect2-3" />
    </clipPath>
  </defs>
  <sodipodi:namedview
     id="base"
     pagecolor="#ffffff"
     bordercolor="#666666"
     borderopacity="1.0"
     inkscape:pageopacity="0.0"
     inkscape:pageshadow="2"
     inkscape:zoom="1.0810119"
     inkscape:cx="561.25984"
     inkscape:cy="464.64546"
     inkscape:document-units="mm"
     inkscape:current-layer="g35"
     showgrid="false"
     inkscape:window-width="1920"
     inkscape:window-height="1027"
     inkscape:window-x="-8"
     inkscape:window-y="-8"
     inkscape:window-maximized="1" />
  <metadata
     id="metadata5">
    <rdf:RDF>
      <cc:Work
         rdf:about="">
        <dc:format>image/svg+xml</dc:format>
        <dc:type
           rdf:resource="http://purl.org/dc/dcmitype/StillImage" />
        <dc:title></dc:title>
      </cc:Work>
    </rdf:RDF>
  </metadata>
  <g
     inkscape:label="Capa 1"
     inkscape:groupmode="layer"
     id="layer1"
     transform="translate(0,-87)">
    <g
       style="isolation:isolate"
       clip-path="url(#_clipPath_rrYKD88vPa7RWqqlMOwlVeO4WfeDkQSl)"
       id="g35"
       transform="matrix(0.41596493,0,0,0.41596493,-44.493753,79.066005)">
      <path
         d="M 300,496.521 180,427.239 V 173.205 l 60,34.641 h 40 l 20,-11.547 z"
         stroke-miterlimit="3"
         id="path7"
         inkscape:connector-curvature="0"
         style="vector-effect:non-scaling-stroke;fill:#980000;stroke:#980000;stroke-width:1;stroke-linecap:square;stroke-linejoin:miter;stroke-miterlimit:3" />
      <path
         d="M 173,431.265 273,489 V 188.778 L 173,131.043 Z"
         stroke-miterlimit="3"
         id="path9"
         inkscape:connector-curvature="0"
         style="vector-effect:non-scaling-stroke;fill:#464646;stroke:#464646;stroke-width:1;stroke-linecap:square;stroke-linejoin:miter;stroke-miterlimit:3" />
      <path
         d="m 294,188.932 -21,-0.154 V 489 l 21,-0.068 z"
         stroke-miterlimit="3"
         id="path11"
         inkscape:connector-curvature="0"
         style="vector-effect:non-scaling-stroke;fill:#393939;stroke:#393939;stroke-width:1;stroke-linecap:square;stroke-linejoin:miter;stroke-miterlimit:3" />
      <path
         d="m 240,184.752 h 40 L 400,115.47 280,46.188 160,115.47 v 23.094 z"
         stroke-miterlimit="3"
         id="path13"
         inkscape:connector-curvature="0"
         style="vector-effect:non-scaling-stroke;fill:#980000;stroke:#980000;stroke-width:1;stroke-linecap:square;stroke-linejoin:miter;stroke-miterlimit:3" />
      <path
         d="m 280,184.752 v 23.094 l 20,-11.547 V 496.521 L 400,438.786 V 115.47 Z"
         stroke-miterlimit="3"
         id="path15"
         inkscape:connector-curvature="0"
         style="vector-effect:non-scaling-stroke;fill:#7b0000;stroke:#7b0000;stroke-width:1;stroke-linecap:square;stroke-linejoin:miter;stroke-miterlimit:3" />
      <path
         d="m 278.5,264.353 q 1.333,-3.77 5,-3.301 3.833,0.489 5,3.301 v 26.833 140.625 25.659 q -1.333,4.022 -5,4.475 -3.667,0.454 -5,-4.475 V 431.811 291.186 Z"
         id="path17"
         inkscape:connector-curvature="0"
         style="fill:#ffffff" />
      <path
         d="m 200,358 v 23 c 0.333,7.167 4.01,13.177 11,18 l 17,10 c 8,4.333 12.01,2.677 12,-5 v -23.125 c -0.056,-7.936 3.62,-9.551 11,-4.875 6,2.5 9.01,0.177 9,-7 V 196.299 L 180,150.111 V 323 c -0.735,7.658 2.608,13.668 10,18 6.333,3.167 9.677,8.843 10,17 z"
         id="path19"
         inkscape:connector-curvature="0"
         style="fill:#d1d1d1" />
      <path
         d="m 232.905,345.926 13.949,7.937 0.241,-10.823 -14.19,-8.177 z"
         id="path21"
         inkscape:connector-curvature="0"
         style="fill:#ffffff" />
      <path
         d="m 160,161.658 80,46.188 v -23.094 l -80,-46.188 z"
         id="path23"
         inkscape:connector-curvature="0"
         style="fill:#ac0303" />
      <path
         d="m 240,207.846 v -23.094 h 40 v 23.094 z"
         id="path25"
         inkscape:connector-curvature="0"
         style="fill:#8c0202" />
      <path
         d="m 191,249 58,33 1,-45 -59,-34 z"
         stroke-miterlimit="3"
         id="path27"
         inkscape:connector-curvature="0"
         style="vector-effect:non-scaling-stroke;fill:#171717;stroke:#171717;stroke-width:1;stroke-linecap:square;stroke-linejoin:miter;stroke-miterlimit:3" />
      <path
         d="M 211,296.841 229.678,307.487 230,292.969 211,282 Z"
         id="path29"
         inkscape:connector-curvature="0"
         style="fill:#171717" />
      <path
         d="m 208.45,381.301 22.606,13.613 0.394,-11.54 -23,-13.87 z"
         id="path31"
         inkscape:connector-curvature="0"
         style="fill:#8b8b8b" />
      <g
         transform="matrix(0.72923157,0.36007826,-0.07684951,0.51686572,203.3911,223.67014)"
         id="g4"
         style="fill:#4d4d4d;fill-opacity:1">
        <path
           d="m 46.222,41.889 c 0.658,1.521 -0.042,3.287 -1.562,3.943 -1.521,0.66 -3.286,-0.041 -3.944,-1.562 -2.893,-6.689 -9.73,-11.012 -17.421,-11.012 -7.868,0 -14.747,4.32 -17.523,11.004 -0.48,1.154 -1.597,1.85 -2.772,1.85 -0.384,0 -0.773,-0.073 -1.15,-0.229 C 0.32,45.246 -0.405,43.49 0.23,41.961 3.94,33.029 12.994,27.258 23.294,27.258 33.379,27.26 42.379,33.002 46.222,41.889 Z M 2.445,6.559 c 0,-3.423 2.777,-6.201 6.201,-6.201 3.423,0 6.2,2.777 6.2,6.201 0,3.426 -2.777,6.203 -6.2,6.203 C 5.222,12.761 2.445,9.984 2.445,6.559 Z m 28.117,0 c 0,-3.423 2.779,-6.201 6.203,-6.201 3.423,0 6.2,2.777 6.2,6.201 0,3.426 -2.776,6.203 -6.2,6.203 -3.424,0 -6.203,-2.778 -6.203,-6.203 z"
           id="path2-7"
           inkscape:connector-curvature="0"
           style="fill:#4d4d4d;fill-opacity:1" />
      </g>
      <path
         d="m 191,249 v -13 l 29,-16.607 20,11.547 -40,23.094 z"
         id="path33"
         inkscape:connector-curvature="0"
         style="fill:#ffffff;fill-opacity:0.07843138" />
    </g>
    <g
       id="g865"
       transform="translate(1.0482967e-6,25.757516)">
      <text
         id="text855"
         y="166.05595"
         x="172.30769"
         style="font-style:normal;font-variant:normal;font-weight:normal;font-stretch:normal;font-size:10.58333302px;line-height:1.25;font-family:calibri;-inkscape-font-specification:calibri;letter-spacing:0px;word-spacing:0px;fill:#000000;fill-opacity:1;stroke:none;stroke-width:0.26458332"
         xml:space="preserve"><tspan
           style="font-style:normal;font-variant:normal;font-weight:normal;font-stretch:normal;font-size:35.27777863px;font-family:calibri;-inkscape-font-specification:calibri;stroke-width:0.26458332"
           y="166.05595"
           x="172.30769"
           id="tspan853"
           sodipodi:role="line">4 0 4</tspan></text>
      <text
         id="text859"
         y="186.86015"
         x="149.31427"
         style="font-style:normal;font-weight:normal;font-size:10.58333302px;line-height:1.25;font-family:sans-serif;letter-spacing:0px;word-spacing:0px;fill:#000000;fill-opacity:1;stroke:none;stroke-width:0.26458332"
         xml:space="preserve"><tspan
           style="stroke-width:0.26458332"
           y="186.86015"
           x="149.31427"
           id="tspan857"
           sodipodi:role="line">Página no encontrada</tspan></text>
    </g>
    <g
       transform="matrix(0.04970899,0,0,0.04970899,193.17567,236.43767)"
       id="g895">
      <path
         id="path2"
         d="m 511.981,162.589 c 0.42,-21.531 -13.602,-43.161 -42.056,-59.588 -55.852,-32.246 -146.103,-32.246 -201.591,10e-4 -27.651,16.068 -41.444,37.114 -41.415,58.176 0,-0.068 -0.004,-0.136 -0.003,-0.205 l -0.116,70.753 c -0.061,21.267 13.977,42.566 42.082,58.793 55.845,32.241 146.096,32.241 201.577,-0.001 27.568,-16.02 41.366,-36.984 41.425,-57.979 L 512,161.787 c -10e-4,0.267 -0.013,0.535 -0.019,0.802 z"
         style="fill:#e0e0e2"
         inkscape:connector-curvature="0" />
      <path
         id="path4"
         d="m 480.93,161.704 -0.116,40.764 c 0.047,-16.632 -10.93,-33.288 -32.905,-45.977 -43.677,-25.217 -114.254,-25.217 -157.647,10e-4 -21.554,12.526 -32.345,28.92 -32.392,45.339 l 0.116,-40.764 c 0.047,-16.42 10.838,-32.813 32.392,-45.339 43.393,-25.217 113.97,-25.218 157.647,-10e-4 21.974,12.689 32.952,29.346 32.905,45.977 z"
         style="fill:#c6c5cb"
         inkscape:connector-curvature="0" />
      <path
         id="path6"
         d="m 444.826,138.125 c -41.896,-24.188 -109.606,-24.188 -151.229,0.001 -41.629,24.193 -41.408,63.413 0.487,87.601 41.901,24.191 109.612,24.191 151.241,-0.001 41.623,-24.189 41.402,-63.408 -0.499,-87.601"
         style="fill:#ffffff"
         inkscape:connector-curvature="0" />
      <path
         id="path8"
         d="m 512,161.787 -0.116,70.753 c -0.06,20.995 -13.858,41.959 -41.425,57.979 -55.481,32.242 -145.733,32.242 -201.576,10e-4 -28.106,-16.227 -42.143,-37.526 -42.082,-58.793 l 0.116,-70.753 c -0.061,21.267 13.977,42.566 42.082,58.793 55.845,32.241 146.096,32.241 201.576,-0.001 27.567,-16.02 41.366,-36.985 41.425,-57.979 z"
         style="fill:#c6c5cb"
         inkscape:connector-curvature="0" />
      <path
         id="path10"
         d="m 469.925,103.001 c 55.845,32.241 56.138,84.519 0.65,116.765 -55.481,32.242 -145.733,32.242 -201.576,0.001 -55.852,-32.246 -56.146,-84.523 -0.665,-116.765 55.487,-32.247 145.739,-32.248 201.591,-10e-4 z M 290.891,207.044 c 43.669,25.212 114.261,25.212 157.646,-0.001 43.393,-25.217 43.155,-66.102 -0.514,-91.315 -43.677,-25.217 -114.254,-25.217 -157.647,0.001 -43.384,25.212 -43.161,66.098 0.515,91.315"
         style="fill:#e0e0e2"
         inkscape:connector-curvature="0" />
      <path
         id="path12"
         d="m 273.374,236.655 c -4.866,-2.81 -9.277,-3.071 -12.462,-1.219 L 156.69,296.002 c 0.01,-0.006 0.023,-0.009 0.033,-0.016 -3.162,1.819 -5.126,5.707 -5.142,11.249 -0.031,11.12 7.789,24.654 17.456,30.235 5.176,2.988 9.819,3.073 13.036,0.825 -0.19,0.133 -0.372,0.282 -0.573,0.398 l 104.221,-60.566 c 3.143,-1.826 5.092,-5.712 5.107,-11.237 0.034,-11.119 -7.777,-24.648 -17.454,-30.235 z"
         style="fill:#c6c5cb"
         inkscape:connector-curvature="0" />
      <path
         id="path14"
         d="m 156.69,296.002 104.221,-60.566 c 3.185,-1.851 7.596,-1.589 12.462,1.22 l -104.221,60.566 c -4.866,-2.809 -9.276,-3.072 -12.462,-1.22 z"
         style="fill:#d8d8da"
         inkscape:connector-curvature="0" />
      <path
         id="path16"
         d="m 285.723,278.127 -104.221,60.566 c 3.143,-1.826 5.092,-5.712 5.106,-11.237 0.031,-11.12 -7.779,-24.649 -17.456,-30.236 l 104.221,-60.566 c 9.677,5.587 17.488,19.115 17.456,30.236 -0.014,5.525 -1.963,9.41 -5.106,11.237 z"
         style="fill:#acabb1"
         inkscape:connector-curvature="0" />
      <path
         id="path18"
         d="m 169.152,297.221 c 9.677,5.587 17.488,19.115 17.456,30.236 -0.031,11.12 -7.893,15.6 -17.571,10.013 -9.668,-5.582 -17.488,-19.116 -17.456,-30.235 0.033,-11.12 7.904,-15.595 17.571,-10.014 z"
         style="fill:#c6c5cb"
         inkscape:connector-curvature="0" />
      <path
         id="path20"
         d="m 165.574,291.135 c 0,16.106 11.281,35.723 25.297,43.816 7.557,4.362 14.349,4.478 19.015,1.141 l 16.592,-9.639 c 4.561,-2.646 7.39,-8.271 7.411,-16.274 0.043,-16.113 -11.284,-35.723 -25.299,-43.822 -7.056,-4.066 -13.446,-4.453 -18.06,-1.764 l -17.479,10.154 c -0.003,-0.002 -7.477,3.644 -7.477,16.388 z"
         style="fill:#d8d8da"
         inkscape:connector-curvature="0" />
      <path
         id="path22"
         d="m 191.036,276.624 c 14.016,8.093 25.342,27.7 25.297,43.816 -0.046,16.105 -11.446,22.602 -25.462,14.509 -14.016,-8.093 -25.342,-27.71 -25.297,-43.816 0.045,-16.114 11.445,-22.601 25.462,-14.509 z"
         style="fill:#acabb1"
         inkscape:connector-curvature="0" />
      <path
         id="path24"
         d="m 190.528,264.59 -17.479,10.154 c 4.604,-2.646 10.971,-2.259 17.995,1.808 h 0.01 l 17.533,-10.197 c -7.055,-4.067 -13.445,-4.453 -18.059,-1.765 z"
         style="fill:#e0e0e2"
         inkscape:connector-curvature="0" />
      <path
         id="path26"
         d="m 208.588,266.355 -17.533,10.197 c 14.016,8.089 25.343,27.698 25.299,43.812 -0.022,8.003 -2.85,13.629 -7.411,16.274 l 17.533,-10.187 c 4.561,-2.646 7.39,-8.271 7.411,-16.274 0.044,-16.113 -11.283,-35.723 -25.299,-43.822 z"
         style="fill:#c6c5cb"
         inkscape:connector-curvature="0" />
      <path
         id="path28"
         d="m 191.091,279.287 c -6.429,-3.713 -12.255,-4.058 -16.461,-1.613 L 6.746,375.237 c 0.014,-0.008 0.028,-0.015 0.042,-0.022 -4.175,2.402 -6.767,7.541 -6.788,14.861 -0.042,14.68 10.282,32.56 23.057,39.935 6.46,3.729 12.307,4.054 16.518,1.572 -0.02,0.011 -0.038,0.028 -0.059,0.041 L 207.4,334.059 c 4.152,-2.414 6.727,-7.544 6.748,-14.836 0.042,-14.688 -10.282,-32.56 -23.057,-39.936 z"
         style="fill:#3e3d43"
         inkscape:connector-curvature="0" />
      <path
         id="path30"
         d="M 6.746,375.237 174.63,277.674 c 4.207,-2.444 10.032,-2.098 16.461,1.614 L 23.207,376.85 c -6.429,-3.712 -12.254,-4.058 -16.461,-1.613 z"
         style="fill:#57565c"
         inkscape:connector-curvature="0" />
      <path
         id="path32"
         d="M 207.4,334.059 39.516,431.622 c 4.152,-2.413 6.727,-7.544 6.748,-14.837 0.042,-14.688 -10.282,-32.56 -23.057,-39.936 l 167.884,-97.563 c 12.775,7.376 23.099,25.248 23.057,39.936 -0.021,7.293 -2.596,12.425 -6.748,14.837 z"
         style="fill:#2e2e30"
         inkscape:connector-curvature="0" />
      <path
         id="path34"
         d="m 23.207,376.85 c 12.775,7.376 23.099,25.248 23.057,39.936 -0.042,14.68 -10.432,20.601 -23.207,13.225 C 10.282,422.635 -0.042,404.755 0,390.076 0.042,375.387 10.432,369.475 23.207,376.85 Z"
         style="fill:#3e3d43"
         inkscape:connector-curvature="0" />
    </g>
  </g>
</svg>
