<?xml version="1.0" encoding="UTF-8" standalone="no"?>
<svg
   xmlns:dc="http://purl.org/dc/elements/1.1/"
   xmlns:cc="http://creativecommons.org/ns#"
   xmlns:rdf="http://www.w3.org/1999/02/22-rdf-syntax-ns#"
   xmlns:svg="http://www.w3.org/2000/svg"
   xmlns="http://www.w3.org/2000/svg"
   xmlns:sodipodi="http://sodipodi.sourceforge.net/DTD/sodipodi-0.dtd"
   xmlns:inkscape="http://www.inkscape.org/namespaces/inkscape"
   id="Layer_3"
   enable-background="new 0 0 64 64"
   height="512"
   viewBox="0 0 64 64"
   width="512"
   version="1.1"
   sodipodi:docname="best.svg"
   inkscape:version="0.92.4 (5da689c313, 2019-01-14)">
  <metadata
     id="metadata17">
    <rdf:RDF>
      <cc:Work
         rdf:about="">
        <dc:format>image/svg+xml</dc:format>
        <dc:type
           rdf:resource="http://purl.org/dc/dcmitype/StillImage" />
      </cc:Work>
    </rdf:RDF>
  </metadata>
  <defs
     id="defs15" />
  <sodipodi:namedview
     pagecolor="#ffffff"
     bordercolor="#666666"
     borderopacity="1"
     objecttolerance="10"
     gridtolerance="10"
     guidetolerance="10"
     inkscape:pageopacity="0"
     inkscape:pageshadow="2"
     inkscape:window-width="760"
     inkscape:window-height="480"
     id="namedview13"
     showgrid="false"
     inkscape:zoom="0.4609375"
     inkscape:cx="256"
     inkscape:cy="256"
     inkscape:window-x="0"
     inkscape:window-y="0"
     inkscape:window-maximized="0"
     inkscape:current-layer="Layer_3" />
  <path
     d="m24 18h16v2h-16z"
     id="path2"
     style="fill:#ffffff" />
  <path
     d="m32 22c-6.617 0-12 5.383-12 12s5.383 12 12 12 12-5.383 12-12-5.383-12-12-12zm-8 12h-2c0-5.514 4.486-10 10-10v2c-4.411 0-8 3.589-8 8zm8 10v-2c4.411 0 8-3.589 8-8h2c0 5.514-4.486 10-10 10z"
     id="path4"
     style="fill:#ffffff" />
  <path
     d="m26.586 16 4-4-9-9h-9.172l13 13z"
     id="path6"
     style="fill:#ffffff" />
  <path
     d="m38.586 16 13-13h-9.172l-13 13z"
     id="path8"
     style="fill:#ffffff" />
  <path
     d="m52.44 50.251c.763.478 1.645.748 2.56.748 1.281 0 2.509-.509 3.414-1.414l3.586-3.586-4 .5v-.5c0-.107.017-.214.051-.316l.179-.537c.511-1.533.77-3.128.77-4.744v-.871c-1.165 1.59-2.801 2.789-4.684 3.417-.102.034-.209.051-.316.051h-.5l-.5-4-1.93 2.573c-.695.926-1.07 2.053-1.07 3.21 0 1.34.518 2.618 1.419 3.603-1.034 1.239-2.181 2.359-3.419 3.352v-6.739l-2.586 2.586c-.905.906-1.414 2.134-1.414 3.415 0 1.024.338 2.006.931 2.825-3.572 2.048-7.662 3.175-11.931 3.175-.336 0-.669.018-1 .049-.331-.031-.664-.049-1-.049-4.269 0-8.359-1.128-11.931-3.175.593-.819.931-1.801.931-2.825 0-1.281-.509-2.509-1.414-3.414l-2.586-2.586v6.739c-1.238-.993-2.385-2.113-3.419-3.352.901-.985 1.419-2.263 1.419-3.604 0-1.158-.375-2.284-1.07-3.21l-1.93-2.573-.5 4h-.5c-.107 0-.214-.018-.316-.051-1.883-.628-3.519-1.827-4.684-3.417v.871c0 1.615.259 3.211.77 4.744l.179.537c.034.102.051.208.051.316v.5l-4-.5 3.586 3.586c.905.905 2.133 1.414 3.414 1.414.914 0 1.797-.27 2.56-.748.878.991 1.819 1.911 2.824 2.748h-6.384l3.568 2.854c.927.742 2.079 1.146 3.266 1.146 1.276 0 2.49-.484 3.442-1.322 2.743 1.54 5.764 2.574 8.932 3.036-.621.404-1.207.871-1.743 1.407l-1.171 1.171 1.414 1.414 1.171-1.171c1.397-1.397 3.188-2.252 5.122-2.473 1.934.221 3.725 1.076 5.122 2.473l1.171 1.171 1.414-1.414-1.171-1.171c-.536-.536-1.122-1.003-1.743-1.407 3.168-.463 6.188-1.497 8.932-3.036.952.838 2.166 1.322 3.442 1.322 1.187 0 2.339-.404 3.266-1.146l3.566-2.854h-6.384c1.005-.837 1.947-1.757 2.824-2.748z"
     id="path10"
     style="fill:#ffffff" />
</svg>
