<?xml version="1.0" encoding="UTF-8" standalone="no"?>
<!-- Created with Inkscape (http://www.inkscape.org/) -->

<svg
   xmlns:dc="http://purl.org/dc/elements/1.1/"
   xmlns:cc="http://creativecommons.org/ns#"
   xmlns:rdf="http://www.w3.org/1999/02/22-rdf-syntax-ns#"
   xmlns:svg="http://www.w3.org/2000/svg"
   xmlns="http://www.w3.org/2000/svg"
   xmlns:sodipodi="http://sodipodi.sourceforge.net/DTD/sodipodi-0.dtd"
   xmlns:inkscape="http://www.inkscape.org/namespaces/inkscape"
   version="1.1"
   id="svg2"
   xml:space="preserve"
   width="1056"
   height="400"
   viewBox="0 0 1056 400"
   sodipodi:docname="botOn.svg.2020_05_15_17_34_40.0.svg"
   inkscape:version="0.92.4 (5da689c313, 2019-01-14)"><metadata
     id="metadata8"><rdf:RDF><cc:Work
         rdf:about=""><dc:format>image/svg+xml</dc:format><dc:type
           rdf:resource="http://purl.org/dc/dcmitype/StillImage" /><dc:title /></cc:Work></rdf:RDF></metadata><defs
     id="defs6"><clipPath
       clipPathUnits="userSpaceOnUse"
       id="clipPath20"><path
         d="M 0,612 H 792 V 0 H 0 Z"
         id="path18"
         inkscape:connector-curvature="0" /></clipPath></defs><sodipodi:namedview
     pagecolor="#000000"
     bordercolor="#666666"
     borderopacity="1"
     objecttolerance="10"
     gridtolerance="10"
     guidetolerance="10"
     inkscape:pageopacity="0"
     inkscape:pageshadow="2"
     inkscape:window-width="1920"
     inkscape:window-height="1027"
     id="namedview4"
     showgrid="false"
     inkscape:zoom="0.40901275"
     inkscape:cx="73.160817"
     inkscape:cy="251.90298"
     inkscape:window-x="-8"
     inkscape:window-y="-8"
     inkscape:window-maximized="1"
     inkscape:current-layer="g10"
     inkscape:pagecheckerboard="false" /><g
     id="g10"
     inkscape:groupmode="layer"
     inkscape:label="Logo_botoÌn_editable"
     transform="matrix(1.3333333,0,0,-1.3333333,0,400)"><g
       id="g14"
       transform="matrix(2.1159256,0,0,2.1159256,-441.90672,-497.33677)"><g
         id="g16"
         clip-path="url(#clipPath20)"><g
           id="g22"
           transform="translate(407.482,278.5309)"><path
             d="m 0,0 c 0,-17.56 14.286,-31.845 31.845,-31.845 h 6.315 c 17.56,0 31.845,14.285 31.845,31.845 v 54.939 c 0,17.559 -14.285,31.844 -31.845,31.844 H 31.845 C 14.286,86.783 0,72.498 0,54.939 Z M 74.493,54.939 V 0 c 0,-20.035 -16.298,-36.333 -36.333,-36.333 H 31.845 C 11.811,-36.333 -4.488,-20.035 -4.488,0 v 54.939 c 0,20.034 16.299,36.333 36.333,36.333 h 6.315 c 20.035,0 36.333,-16.299 36.333,-36.333"
             style="fill:#00aeef;fill-opacity:1;fill-rule:nonzero;stroke:none"
             id="path24"
             inkscape:connector-curvature="0" /></g><g
           id="g26"
           transform="translate(442.2213,256.2842)"><path
             d="m 0,0 c -16.073,0 -29.103,13.03 -29.103,29.103 0,16.073 13.03,29.102 29.103,29.102 16.073,0 29.103,-13.029 29.103,-29.102 C 29.103,13.03 16.073,0 0,0"
             style="fill:#ffffff;fill-opacity:1;fill-rule:nonzero;stroke:none"
             id="path28"
             inkscape:connector-curvature="0" /></g><g
           id="g30"
           transform="translate(490.0927,312.5877)"><path
             d="m 0,0 h 16.398 v -7.515 h 0.227 c 0.531,1.062 1.291,2.124 2.278,3.188 0.986,1.063 2.164,2.011 3.531,2.847 1.366,0.834 2.921,1.518 4.668,2.05 1.746,0.53 3.644,0.797 5.694,0.797 4.328,0 7.819,-0.666 10.477,-1.993 2.657,-1.329 4.726,-3.171 6.206,-5.523 1.48,-2.354 2.485,-5.124 3.018,-8.313 0.53,-3.189 0.797,-6.644 0.797,-10.362 v -30.52 H 36.212 v 27.103 c 0,1.594 -0.057,3.245 -0.17,4.953 -0.114,1.709 -0.456,3.284 -1.026,4.727 -0.569,1.44 -1.443,2.618 -2.618,3.53 -1.178,0.911 -2.867,1.366 -5.067,1.366 -2.204,0 -3.986,-0.398 -5.353,-1.196 -1.367,-0.797 -2.411,-1.861 -3.132,-3.188 -0.722,-1.33 -1.195,-2.829 -1.424,-4.498 -0.227,-1.67 -0.34,-3.416 -0.34,-5.239 V -55.344 H 0 Z"
             style="fill:#ffffff;fill-opacity:1;fill-rule:nonzero;stroke:none"
             id="path32"
             inkscape:connector-curvature="0" /></g><g
           id="g34"
           transform="translate(555.7987,267.0375)"><path
             d="m 0,0 c 0,1.441 0.265,2.808 0.797,4.1 0.53,1.29 1.271,2.409 2.22,3.359 0.949,0.948 2.068,1.689 3.359,2.221 1.291,0.53 2.657,0.797 4.1,0.797 1.442,0 2.808,-0.267 4.1,-0.797 1.29,-0.532 2.409,-1.273 3.36,-2.221 0.947,-0.95 1.688,-2.069 2.22,-3.359 0.53,-1.292 0.797,-2.659 0.797,-4.1 0,-1.443 -0.267,-2.809 -0.797,-4.1 -0.532,-1.291 -1.273,-2.411 -2.22,-3.359 -0.951,-0.95 -2.07,-1.691 -3.36,-2.221 -1.292,-0.53 -2.658,-0.797 -4.1,-0.797 -1.443,0 -2.809,0.267 -4.1,0.797 -1.291,0.53 -2.41,1.271 -3.359,2.221 C 2.068,-6.511 1.327,-5.391 0.797,-4.1 0.265,-2.809 0,-1.443 0,0"
             style="fill:#ffffff;fill-opacity:1;fill-rule:nonzero;stroke:none"
             id="path36"
             inkscape:connector-curvature="0" /></g><g
           id="g38"
           transform="translate(232.9997,272.7304)"><path
             d="m 0,0 h 15.931 c 1.365,0 2.748,0.151 4.153,0.455 1.403,0.302 2.674,0.834 3.812,1.593 1.138,0.757 2.066,1.744 2.788,2.959 0.72,1.212 1.081,2.692 1.081,4.438 0,1.894 -0.475,3.431 -1.422,4.608 -0.95,1.175 -2.145,2.066 -3.585,2.674 -1.442,0.606 -2.997,1.024 -4.665,1.252 -1.67,0.227 -3.226,0.341 -4.666,0.341 H 0 Z m 0,33.341 h 12.858 c 1.366,0 2.712,0.151 4.04,0.454 1.326,0.303 2.521,0.797 3.584,1.48 1.062,0.682 1.915,1.593 2.561,2.731 0.643,1.138 0.967,2.504 0.967,4.096 0,1.668 -0.361,3.053 -1.081,4.154 -0.722,1.098 -1.65,1.952 -2.788,2.56 -1.138,0.606 -2.429,1.042 -3.869,1.309 -1.442,0.264 -2.845,0.398 -4.21,0.398 H 0 Z m -17.751,32.202 h 30.04 c 3.489,0 6.999,-0.247 10.526,-0.74 3.528,-0.493 6.694,-1.478 9.501,-2.958 2.806,-1.479 5.082,-3.547 6.828,-6.201 1.744,-2.657 2.617,-6.184 2.617,-10.583 0,-4.551 -1.271,-8.326 -3.812,-11.323 -2.542,-2.997 -5.899,-5.14 -10.07,-6.428 v -0.228 c 2.654,-0.381 5.064,-1.12 7.225,-2.219 2.162,-1.1 4.02,-2.503 5.576,-4.21 1.554,-1.707 2.749,-3.699 3.585,-5.974 0.834,-2.276 1.251,-4.705 1.251,-7.283 0,-4.249 -0.91,-7.794 -2.731,-10.639 -1.82,-2.845 -4.173,-5.14 -7.055,-6.884 -2.884,-1.746 -6.127,-2.998 -9.729,-3.755 -3.604,-0.76 -7.188,-1.138 -10.753,-1.138 h -32.999 z"
             style="fill:#e6e6e6;fill-opacity:1;fill-rule:nonzero;stroke:none"
             id="path40"
             inkscape:connector-curvature="0" /></g><g
           id="g42"
           transform="translate(301.8425,285.3607)"><path
             d="m 0,0 c 0,-4.173 1.195,-7.549 3.584,-10.127 2.39,-2.58 5.747,-3.869 10.071,-3.869 4.324,0 7.681,1.289 10.07,3.869 2.39,2.578 3.585,5.954 3.585,10.127 0,4.171 -1.195,7.548 -3.585,10.128 -2.389,2.578 -5.746,3.869 -10.07,3.869 -4.324,0 -7.681,-1.291 -10.071,-3.869 C 1.195,7.548 0,4.171 0,0 m -17.069,0 c 0,4.399 0.797,8.382 2.39,11.948 1.593,3.565 3.773,6.618 6.543,9.16 2.768,2.541 6.031,4.495 9.786,5.861 3.755,1.365 7.755,2.048 12.005,2.048 4.247,0 8.249,-0.683 12.005,-2.048 3.755,-1.366 7.016,-3.32 9.786,-5.861 2.768,-2.542 4.95,-5.595 6.543,-9.16 C 43.582,8.382 44.378,4.399 44.378,0 c 0,-4.4 -0.796,-8.383 -2.389,-11.948 -1.593,-3.566 -3.775,-6.619 -6.543,-9.159 -2.77,-2.544 -6.031,-4.496 -9.786,-5.861 -3.756,-1.365 -7.758,-2.048 -12.005,-2.048 -4.25,0 -8.25,0.683 -12.005,2.048 -3.755,1.365 -7.018,3.317 -9.786,5.861 -2.77,2.54 -4.95,5.593 -6.543,9.159 -1.593,3.565 -2.39,7.548 -2.39,11.948"
             style="fill:#e6e6e6;fill-opacity:1;fill-rule:nonzero;stroke:none"
             id="path44"
             inkscape:connector-curvature="0" /></g><g
           id="g46"
           transform="translate(393.8973,299.3575)"><path
             d="m 0,0 h -15.02 v -18.435 c 0,-1.518 0.074,-2.901 0.227,-4.153 0.151,-1.251 0.493,-2.332 1.025,-3.243 0.529,-0.91 1.345,-1.613 2.446,-2.105 1.099,-0.494 2.56,-0.74 4.381,-0.74 0.91,0 2.105,0.094 3.584,0.285 1.479,0.188 2.598,0.626 3.357,1.309 v -14.225 c -1.897,-0.682 -3.869,-1.137 -5.917,-1.365 -2.048,-0.227 -4.059,-0.341 -6.031,-0.341 -2.884,0 -5.538,0.304 -7.966,0.91 -2.428,0.606 -4.551,1.574 -6.371,2.902 -1.821,1.326 -3.244,3.053 -4.268,5.177 -1.024,2.123 -1.536,4.703 -1.536,7.738 V 0 h -10.924 v 13.654 h 10.924 V 30.041 H -15.02 V 13.654 H 0 Z"
             style="fill:#e6e6e6;fill-opacity:1;fill-rule:nonzero;stroke:none"
             id="path48"
             inkscape:connector-curvature="0" /></g></g></g></g></svg>