<?xml version="1.0" encoding="UTF-8" standalone="no"?>
<!-- Created with Inkscape (http://www.inkscape.org/) -->

<svg
   xmlns:dc="http://purl.org/dc/elements/1.1/"
   xmlns:cc="http://creativecommons.org/ns#"
   xmlns:rdf="http://www.w3.org/1999/02/22-rdf-syntax-ns#"
   xmlns:svg="http://www.w3.org/2000/svg"
   xmlns="http://www.w3.org/2000/svg"
   xmlns:sodipodi="http://sodipodi.sourceforge.net/DTD/sodipodi-0.dtd"
   xmlns:inkscape="http://www.inkscape.org/namespaces/inkscape"
   version="1.1"
   id="svg2"
   xml:space="preserve"
   width="400"
   height="400"
   viewBox="0 0 400 400"
   sodipodi:docname="botOn.svg"
   inkscape:version="0.92.4 (5da689c313, 2019-01-14)"><metadata
     id="metadata8"><rdf:RDF><cc:Work
         rdf:about=""><dc:format>image/svg+xml</dc:format><dc:type
           rdf:resource="http://purl.org/dc/dcmitype/StillImage" /><dc:title></dc:title></cc:Work></rdf:RDF></metadata><defs
     id="defs6"><clipPath
       clipPathUnits="userSpaceOnUse"
       id="clipPath20"><path
         d="M 0,612 H 792 V 0 H 0 Z"
         id="path18"
         inkscape:connector-curvature="0" /></clipPath></defs><sodipodi:namedview
     pagecolor="#000000"
     bordercolor="#666666"
     borderopacity="1"
     objecttolerance="10"
     gridtolerance="10"
     guidetolerance="10"
     inkscape:pageopacity="0"
     inkscape:pageshadow="2"
     inkscape:window-width="1920"
     inkscape:window-height="1027"
     id="namedview4"
     showgrid="false"
     inkscape:zoom="0.40901275"
     inkscape:cx="73.160817"
     inkscape:cy="251.90298"
     inkscape:window-x="-8"
     inkscape:window-y="-8"
     inkscape:window-maximized="1"
     inkscape:current-layer="g10"
     inkscape:pagecheckerboard="false" /><g
     id="g10"
     inkscape:groupmode="layer"
     inkscape:label="Logo_botoÌn_editable"
     transform="matrix(1.3333333,0,0,-1.3333333,0,400)"><path
       inkscape:connector-curvature="0"
       d="M 233.8337,264.56477 H 66.095516 c -17.996538,0 -32.636761,-14.64085 -32.636761,-32.63675 V 65.297161 c 0,-17.996534 14.640223,-32.636759 32.636761,-32.636759 74.186134,0 167.737544,0 167.737544,0 17.99654,0 32.63676,14.640225 32.63676,32.636759 V 231.92802 c 5.3e-4,17.9959 -14.64022,32.63675 -32.63612,32.63675 z"
       style="fill:#1a1a1a;stroke-width:0.63017488"
       id="XMLID_1642_"
       sodipodi:nodetypes="ssssssscs" /><g
       clip-path="url(#clipPath20)"
       id="g16"
       transform="matrix(1.3725338,0,0,1.3725338,-457.79717,-261.41875)"><g
         transform="translate(407.482,278.5309)"
         id="g22"><path
           inkscape:connector-curvature="0"
           id="path24"
           style="fill:#00aeef;fill-opacity:1;fill-rule:nonzero;stroke:none"
           d="m 0,0 c 0,-17.56 14.286,-31.845 31.845,-31.845 h 6.315 c 17.56,0 31.845,14.285 31.845,31.845 v 54.939 c 0,17.559 -14.285,31.844 -31.845,31.844 H 31.845 C 14.286,86.783 0,72.498 0,54.939 Z M 74.493,54.939 V 0 c 0,-20.035 -16.298,-36.333 -36.333,-36.333 H 31.845 C 11.811,-36.333 -4.488,-20.035 -4.488,0 v 54.939 c 0,20.034 16.299,36.333 36.333,36.333 h 6.315 c 20.035,0 36.333,-16.299 36.333,-36.333" /></g><g
         transform="translate(442.2213,256.2842)"
         id="g26"><path
           inkscape:connector-curvature="0"
           id="path28"
           style="fill:#ffffff;fill-opacity:1;fill-rule:nonzero;stroke:none"
           d="m 0,0 c -16.073,0 -29.103,13.03 -29.103,29.103 0,16.073 13.03,29.102 29.103,29.102 16.073,0 29.103,-13.029 29.103,-29.102 C 29.103,13.03 16.073,0 0,0" /></g><g
         transform="translate(490.0927,312.5877)"
         id="g30" /><g
         transform="translate(555.7987,267.0375)"
         id="g34" /><g
         transform="translate(232.9997,272.7304)"
         id="g38" /><g
         transform="translate(301.8425,285.3607)"
         id="g42" /><g
         transform="translate(393.8973,299.3575)"
         id="g46" /></g></g></svg>