<!--?xml Version="1.0" encoding="UTF-8" standalone="no"?-->
<svg
   xmlns:dc="http://purl.org/dc/elements/1.1/"
   xmlns:cc="http://creativecommons.org/ns#"
   xmlns:rdf="http://www.w3.org/1999/02/22-rdf-syntax-ns#"
   xmlns:svg="http://www.w3.org/2000/svg"
   xmlns="http://www.w3.org/2000/svg"
   xmlns:sodipodi="http://sodipodi.sourceforge.net/DTD/sodipodi-0.dtd"
   xmlns:inkscape="http://www.inkscape.org/namespaces/inkscape"
   viewBox="0 0 1200 800"
   height="800"
   width="1200"
   xml:space="preserve"
   id="svg2"
   Version="1.1"
   sodipodi:docname="cds vectorizado blanco.svg"
   inkscape:Version="0.92.4 (5da689c313, 2019-01-14)"
   inkscape:export-filename="C:\Users\CDS Desarrollo\Downloads\cds vectorizado blanco.png"
   inkscape:export-xdpi="96"
   inkscape:export-ydpi="96"><sodipodi:namedview
     pagecolor="#ffffff"
     bordercolor="#666666"
     borderopacity="1"
     objecttolerance="10"
     gridtolerance="10"
     guidetolerance="10"
     inkscape:pageopacity="0"
     inkscape:pageshadow="2"
     inkscape:window-width="1920"
     inkscape:window-height="1027"
     id="namedview34"
     showgrid="false"
     inkscape:zoom="0.75837202"
     inkscape:cx="524.34344"
     inkscape:cy="339.73663"
     inkscape:window-x="-8"
     inkscape:window-y="-8"
     inkscape:window-maximized="1"
     inkscape:current-layer="g10"
     showborder="false"
     inkscape:pagecheckerboard="true" /><metadata
     id="metadata8"><rdf:RDF><cc:Work
         rdf:about=""><dc:format>image/svg+xml</dc:format><dc:type
           rdf:resource="http://purl.org/dc/dcmitype/StillImage" /><dc:title /></cc:Work></rdf:RDF></metadata><defs
     id="defs6"><clipPath
       id="clipPath18"
       clipPathUnits="userSpaceOnUse"><path
         id="path16"
         d="M 0,600 H 900 V 0 H 0 Z" /></clipPath><clipPath
       id="clipPath50"
       clipPathUnits="userSpaceOnUse"><path
         id="path48"
         d="M 0,600 H 900 V 0 H 0 Z" /></clipPath></defs><g
     transform="matrix(1.3333333,0,0,-1.3333333,0,800)"
     id="g10"><g
   id="g14"
   clip-path="url(#clipPath18)"
   style="fill:#ffffff"
   transform="matrix(2.1969541,0,0,2.1969541,-509.74655,-406.22323)"><g
     id="g20"
     transform="translate(496.417,365.8845)"
     style="fill:#ffffff"><path
       inkscape:connector-curvature="0"
       d="m 0,0 c -3.961,0.857 -8.174,1.419 -10.914,3.786 9.232,6.792 20.469,12.827 35.128,14.273 1.618,0.164 3.27,0.266 4.976,0.298 24.003,0.609 42.823,-10.227 51.804,-27.639 14.071,0.041 26.089,-0.507 40.061,-0.281 -0.197,0.322 -0.214,0.456 -0.381,0.866 -12,31.264 -46.216,47 -83.491,46.666 C 33.719,37.94 30.302,37.747 26.911,37.414 -7.073,34.049 -36.661,15.777 -49.016,-9.704 c 38.447,-13.837 78.58,-28.546 117.164,-43.322 -2.484,-2.095 -5.12,-5.506 -8.417,-6 -8.257,-4.766 -17.573,-7.537 -26.955,-8.464 -45.42,-3.489 -56.241,26.666 -56.311,26.657 -0.275,-0.026 -0.822,1.509 -0.903,1.714 -0.861,2.056 -2.113,6.058 -1.718,8.326 -0.062,0.383 -0.424,0.378 -0.386,0.866 -9.587,0.014 -18.062,1.413 -27.827,1.188 -1.828,-12.966 1.998,-28.36 7.861,-36.841 16.587,-22.666 43.381,-37.551 78.969,-37.41 4.107,0.021 8.086,0.234 11.947,0.617 33.034,3.266 56.867,19.373 71.726,39.219 4.569,7.071 7.606,15.42 8.291,25.697 C 82.843,-25.097 41.413,-12.544 0,0"
       style="fill:#ffffff;fill-opacity:1;fill-rule:evenodd;stroke:none"
       id="path22" /></g><g
     id="g24"
     transform="translate(302.4492,336.2849)"
     style="fill:#ffffff"><path
       inkscape:connector-curvature="0"
       d="m 0,0 c -6.278,1.006 -10.97,1.039 -11.163,1.05 l -0.62,0.003 -0.48,-0.406 c -0.176,-0.126 -17.061,-13.843 -29.688,-14.578 -4.183,-0.237 -7.269,0.951 -9.457,3.642 -0.062,0.1 -7.955,11.254 20.457,34.892 11.368,9.174 21.596,10.426 24.457,10.59 1.474,0.088 2.243,-0.026 2.401,-0.064 0.302,-0.114 0.664,-0.193 1.118,-0.293 3.013,-0.685 8.601,-1.939 6.755,-11.883 l -0.375,-2.016 2.007,-0.117 10.725,-0.57 1.208,-0.079 0.491,1.135 c 0.208,0.515 5.342,12.612 0.003,20.508 -3.124,4.613 -8.998,6.699 -17.473,6.204 L 0.281,48.015 0.196,48.001 C -41.313,41.386 -63.845,1.91 -64.067,1.51 c -0.281,-0.501 -7.536,-13.282 -3.513,-22.997 1.898,-4.567 5.906,-7.647 11.927,-9.119 l 0.117,-0.032 0.117,-0.011 c 1.296,-0.138 3.326,-0.296 6.079,-0.138 11.11,0.646 28.856,5.997 50.306,27.739 z"
       style="fill:#ffffff;fill-opacity:1;fill-rule:evenodd;stroke:none"
       id="path26" /></g><g
     id="g28"
     transform="translate(445.0439,402.2097)"
     style="fill:#ffffff"><path
       inkscape:connector-curvature="0"
       d="m 0,0 c -4.824,6.726 -15.21,6.015 -17.342,5.789 h -0.003 l -67.443,-5.71 -0.917,-1.404 -0.107,-0.009 -3.943,-6.029 c 0.041,0.006 0.08,0.011 0.121,0.017 l -3.07,-4.704 5.891,0.881 c 2.517,0.377 4.997,0.693 7.361,0.944 27.786,2.947 43.659,-2.6 47.17,-16.487 0.088,-0.366 0.157,-0.673 0.228,-0.901 0.375,-1.208 0.789,-6.466 -0.45,-13.677 -1.6,-8.855 -5.588,-20.199 -14.646,-30.91 -1.031,-1.193 -2.12,-2.379 -3.288,-3.548 -24.161,-24.694 -47.95,-28.909 -53.049,-29.448 -5.102,-0.543 -42.39,4.365 -42.39,4.365 l -0.953,-1.702 -0.109,0.011 -4.941,-8.814 c 0,0 0.045,-0.009 0.111,-0.021 l -1.714,-3.062 3.651,-0.699 c 0.685,-0.139 69.52,-13.49 74.101,-14.581 5.131,-1.486 10.113,-1.986 14.803,-1.491 19.448,2.064 27.668,20.146 28.017,20.919 l 0.067,0.184 c 3.139,8.706 30.167,83.951 32.016,90.088 C 3.027,-11.336 3.297,-4.61 0,0"
       style="fill:#ffffff;fill-opacity:1;fill-rule:evenodd;stroke:none"
       id="path30" /></g><g
     id="g32"
     transform="translate(336.5717,319.095)"
     style="fill:#ffffff"><path
       inkscape:connector-curvature="0"
       d="M 0,0 C 27.71,-0.754 45.11,19.592 49.425,31.884 62.575,69.295 9.496,57.997 9.496,57.997 L -23.562,3.174 c 0,0 20.899,-3.458 23.562,-3.174"
       style="fill:#ffffff;fill-opacity:1;fill-rule:evenodd;stroke:none"
       id="path34" /></g><g
     id="g36"
     transform="translate(630.2412,314.4993)"
     style="fill:#ffffff"><path
       inkscape:connector-curvature="0"
       d="m 0,0 v -2.615 h 2.168 c 0.655,0 1.103,0.076 1.34,0.225 0.344,0.214 0.514,0.579 0.514,1.094 0,0.448 -0.123,0.775 -0.372,0.983 C 3.405,-0.103 2.938,0 2.256,0 Z M -1.396,1.27 H 2.285 C 3.144,1.27 3.759,1.185 4.14,1.009 4.517,0.84 4.824,0.556 5.063,0.167 5.298,-0.222 5.418,-0.682 5.418,-1.202 5.418,-1.65 5.333,-2.039 5.163,-2.364 5.034,-2.604 4.748,-2.87 4.314,-3.157 4.71,-3.353 4.979,-3.581 5.113,-3.836 5.251,-4.096 5.321,-4.534 5.321,-5.158 v -0.997 c 0,-0.474 0.103,-0.863 0.31,-1.176 L 5.777,-7.562 H 4.216 c -0.1,0.365 -0.17,0.798 -0.211,1.299 l -0.07,1.085 C 3.911,-4.777 3.841,-4.5 3.747,-4.333 3.643,-4.169 3.502,-4.055 3.314,-3.982 3.13,-3.908 2.765,-3.873 2.212,-3.873 H 0 V -7.562 H -1.396 Z M 8.396,-3.206 C 8.396,-2.03 8.098,-0.93 7.507,0.1 6.913,1.132 6.111,1.942 5.096,2.537 4.081,3.13 2.986,3.426 1.816,3.426 0.638,3.426 -0.465,3.13 -1.495,2.537 -2.53,1.942 -3.338,1.132 -3.929,0.1 -4.52,-0.93 -4.812,-2.039 -4.812,-3.224 c 0,-1.182 0.292,-2.279 0.883,-3.3 0.591,-1.023 1.399,-1.834 2.434,-2.425 1.036,-0.594 2.141,-0.889 3.311,-0.889 1.164,0 2.259,0.298 3.28,0.892 1.021,0.597 1.829,1.404 2.414,2.425 0.591,1.021 0.886,2.124 0.886,3.315 m 1.062,0.012 c 0,-1.384 -0.34,-2.663 -1.024,-3.848 -0.685,-1.178 -1.621,-2.115 -2.809,-2.805 -1.193,-0.694 -2.469,-1.035 -3.826,-1.035 -1.364,0 -2.639,0.341 -3.829,1.029 -1.191,0.69 -2.13,1.627 -2.818,2.809 -0.684,1.184 -1.026,2.457 -1.026,3.812 0,1.363 0.342,2.647 1.026,3.846 0.688,1.197 1.627,2.136 2.812,2.818 1.187,0.687 2.466,1.032 3.835,1.032 1.363,0 2.638,-0.342 3.82,-1.021 1.18,-0.681 2.112,-1.62 2.806,-2.82 0.687,-1.199 1.033,-2.472 1.033,-3.817"
       style="fill:#ffffff;fill-opacity:1;fill-rule:nonzero;stroke:none"
       id="path38" /></g></g>
</g></svg>