<?xml version="1.0" encoding="UTF-8" standalone="no"?>
<!-- Generator: Adobe Illustrator 21.0.0, SVG Export Plug-In . SVG Version: 6.00 Build 0)  -->

<svg
   xmlns:dc="http://purl.org/dc/elements/1.1/"
   xmlns:cc="http://creativecommons.org/ns#"
   xmlns:rdf="http://www.w3.org/1999/02/22-rdf-syntax-ns#"
   xmlns:svg="http://www.w3.org/2000/svg"
   xmlns="http://www.w3.org/2000/svg"
   xmlns:sodipodi="http://sodipodi.sourceforge.net/DTD/sodipodi-0.dtd"
   xmlns:inkscape="http://www.inkscape.org/namespaces/inkscape"
   version="1.1"
   id="Capa_1"
   x="0px"
   y="0px"
   viewBox="0 0 505.561 505.561"
   style="enable-background:new 0 0 505.561 505.561;"
   xml:space="preserve"
   width="512"
   height="512"
   sodipodi:docname="nfc-card.svg"
   inkscape:version="0.92.4 (5da689c313, 2019-01-14)"><metadata
   id="metadata17"><rdf:RDF><cc:Work
       rdf:about=""><dc:format>image/svg+xml</dc:format><dc:type
         rdf:resource="http://purl.org/dc/dcmitype/StillImage" /><dc:title></dc:title></cc:Work></rdf:RDF></metadata><defs
   id="defs15">
	
	
	
	
	
	
	
	
	
</defs><sodipodi:namedview
   pagecolor="#ffffff"
   bordercolor="#666666"
   borderopacity="1"
   objecttolerance="10"
   gridtolerance="10"
   guidetolerance="10"
   inkscape:pageopacity="0"
   inkscape:pageshadow="2"
   inkscape:window-width="1920"
   inkscape:window-height="1027"
   id="namedview13"
   showgrid="false"
   inkscape:zoom="0.921875"
   inkscape:cx="20.358977"
   inkscape:cy="257.92683"
   inkscape:window-x="1358"
   inkscape:window-y="-8"
   inkscape:window-maximized="1"
   inkscape:current-layer="Capa_1"
   inkscape:pagecheckerboard="true" />
<path
   inkscape:connector-curvature="0"
   d="M 453.771,68.78 H 51.79 C 23.232,68.78 0,92.013 0,120.57 v 264.42 c 0,28.558 23.232,51.79 51.79,51.79 h 401.98 c 28.558,0 51.79,-23.232 51.79,-51.79 V 120.57 C 505.561,92.013 482.328,68.78 453.771,68.78 Z"
   style="fill:#ffffff"
   id="XMLID_1642_" /><path
   inkscape:connector-curvature="0"
   d="m 303.037,294.474 c -3.859,0 -7.717,-1.479 -10.649,-4.437 -5.834,-5.882 -5.796,-15.379 0.086,-21.213 9.241,-9.167 9.381,-24.063 0.312,-33.207 -5.834,-5.882 -5.796,-15.379 0.086,-21.213 5.881,-5.834 15.379,-5.794 21.213,0.086 20.719,20.889 20.502,54.816 -0.483,75.633 -2.926,2.901 -6.747,4.351 -10.565,4.351 z"
   style="fill:#9ca2b5"
   id="XMLID_1656_" /><path
   inkscape:connector-curvature="0"
   d="m 344.755,318.625 c -3.859,0 -7.717,-1.479 -10.649,-4.437 -5.834,-5.882 -5.796,-15.379 0.086,-21.213 22.774,-22.591 23.073,-59.347 0.667,-81.936 -5.834,-5.882 -5.796,-15.379 0.086,-21.213 5.882,-5.834 15.378,-5.797 21.213,0.086 34.056,34.333 33.68,90.121 -0.839,124.361 -2.925,2.903 -6.746,4.352 -10.564,4.352 z"
   style="fill:#9ca2b5"
   id="XMLID_1653_" /><path
   inkscape:connector-curvature="0"
   d="m 379.863,355.276 c -3.859,0 -7.717,-1.479 -10.649,-4.437 -5.834,-5.882 -5.796,-15.379 0.086,-21.213 43.251,-42.901 43.792,-112.733 1.206,-155.666 -5.834,-5.882 -5.796,-15.379 0.086,-21.213 5.882,-5.834 15.378,-5.795 21.213,0.086 54.235,54.678 53.617,143.541 -1.378,198.092 -2.925,2.902 -6.745,4.351 -10.564,4.351 z"
   style="fill:#9ca2b5"
   id="XMLID_1652_" /><path
   inkscape:connector-curvature="0"
   d="M 216.978,177.988 H 78.074 c -8.284,0 -15,-6.716 -15,-15 0,-8.284 6.716,-15 15,-15 h 138.903 c 8.284,0 15,6.716 15,15 0,8.284 -6.715,15 -14.999,15 z"
   style="fill:#707789"
   id="XMLID_1651_" /><path
   inkscape:connector-curvature="0"
   d="M 147.525,236.4 H 83.78 c -8.284,0 -15,-6.716 -15,-15 0,-8.284 6.716,-15 15,-15 h 63.745 c 8.284,0 15,6.716 15,15 0,8.284 -6.715,15 -15,15 z"
   style="fill:#707789"
   id="XMLID_1647_" />















</svg>