<!--?xml Version="1.0" encoding="UTF-8" standalone="no"?-->
<!-- Generator: Gravit.io -->

<svg
   xmlns:dc="http://purl.org/dc/elements/1.1/"
   xmlns:cc="http://creativecommons.org/ns#"
   xmlns:rdf="http://www.w3.org/1999/02/22-rdf-syntax-ns#"
   xmlns:svg="http://www.w3.org/2000/svg"
   xmlns="http://www.w3.org/2000/svg"
   xmlns:sodipodi="http://sodipodi.sourceforge.net/DTD/sodipodi-0.dtd"
   xmlns:inkscape="http://www.inkscape.org/namespaces/inkscape"
   style="isolation:isolate"
   viewBox="0 0 560 600"
   width="560pt"
   height="600pt"
   Version="1.1"
   id="svg35"
   sodipodi:docname="Salida.svg"
   inkscape:Version="0.92.4 (5da689c313, 2019-01-14)">
  <metadata
     id="metadata39">
    <rdf:RDF>
      <cc:Work
         rdf:about="">
        <dc:format>image/svg+xml</dc:format>
        <dc:type
           rdf:resource="http://purl.org/dc/dcmitype/StillImage" />
      </cc:Work>
    </rdf:RDF>
  </metadata>
  <sodipodi:namedview
     pagecolor="#ffffff"
     bordercolor="#666666"
     borderopacity="1"
     objecttolerance="10"
     gridtolerance="10"
     guidetolerance="10"
     inkscape:pageopacity="0"
     inkscape:pageshadow="2"
     inkscape:window-width="1920"
     inkscape:window-height="1027"
     id="namedview37"
     showgrid="false"
     inkscape:zoom="0.834386"
     inkscape:cx="624.94745"
     inkscape:cy="307.72513"
     inkscape:window-x="-8"
     inkscape:window-y="-8"
     inkscape:window-maximized="1"
     inkscape:current-layer="svg35" />
  <defs
     id="defs5">
    <clipPath
       id="_clipPath_XCswCXyUr6AztyZOmB7RMUZi6bbgMRy1">
      <rect
         width="560"
         height="600"
         id="rect2" />
    </clipPath>
  </defs>
  <g
     clip-path="url(#_clipPath_XCswCXyUr6AztyZOmB7RMUZi6bbgMRy1)"
     id="g33"
     transform="matrix(1.2271436,0,0,1.2271436,-48.867546,-89.239001)">
    <path
       d="M 160,484.974 V 184.752 l 60,34.641 20,-0.393 v 312.162 z"
       id="path7"
       inkscape:connector-curvature="0"
       style="fill:#464646" />
    <path
       d="m 280,531.162 60,-34.641 V 173.205 l -60,34.641 z"
       id="path9"
       inkscape:connector-curvature="0"
       style="fill:#313131" />
    <path
       d="M 260,196.299 360,138.564 260,80.829 152,143 l -3,12 71,41.299 z"
       stroke-miterlimit="3"
       id="path11"
       inkscape:connector-curvature="0"
       style="vector-effect:non-scaling-stroke;fill:#980000;stroke:#980000;stroke-width:1;stroke-linecap:square;stroke-linejoin:miter;stroke-miterlimit:3" />
    <path
       d="m 240,554.256 -80,-46.188 v -23.094 l 80,46.188 z"
       stroke-miterlimit="3"
       id="path13"
       inkscape:connector-curvature="0"
       style="vector-effect:non-scaling-stroke;fill:#a80202;stroke:#a80202;stroke-width:1;stroke-linecap:square;stroke-linejoin:miter;stroke-miterlimit:3" />
    <path
       d="m 240,554.256 h 40 v -23.094 h -40 z"
       stroke-miterlimit="3"
       id="path15"
       inkscape:connector-curvature="0"
       style="vector-effect:non-scaling-stroke;fill:#8e0202;stroke:#8e0202;stroke-width:1;stroke-linecap:square;stroke-linejoin:miter;stroke-miterlimit:3" />
    <path
       d="m 240,219 20,0.393 20,-11.547 v 323.316 h -40 z"
       stroke-miterlimit="3"
       id="path17"
       inkscape:connector-curvature="0"
       style="vector-effect:non-scaling-stroke;fill:#3e3d3d;stroke:#3e3d3d;stroke-width:1;stroke-linecap:square;stroke-linejoin:miter;stroke-miterlimit:3" />
    <path
       d="m 253,248.534 q 1.867,-3.849 7,-3.37 5.366,0.5 7,3.37 v 27.399 143.592 26.199 q -1.867,4.107 -7,4.57 -5.133,0.463 -7,-4.57 V 419.525 275.933 Z"
       id="path19"
       inkscape:connector-curvature="0"
       style="fill:#ffffff" />
    <path
       d="m 172,308 c -0.577,18.707 4.766,29.05 16,31 8.932,2.249 12.942,12.427 12,30.504 -0.75,17.455 2.593,27.088 10,28.868 7,1.378 17.25,1.628 18,-13.372 V 219 l -8,0.393 L 171,191 Z"
       id="path21"
       inkscape:connector-curvature="0"
       style="fill:#b9b9b9" />
    <path
       d="m 220,196.299 h 40 v 23.094 h -40 z"
       stroke-miterlimit="3"
       id="path23"
       inkscape:connector-curvature="0"
       style="vector-effect:non-scaling-stroke;fill:#8e0202;stroke:#8e0202;stroke-width:1;stroke-linecap:square;stroke-linejoin:miter;stroke-miterlimit:3" />
    <path
       d="m 149,155 71,41.299 v 23.094 L 149,178 Z"
       stroke-miterlimit="3"
       id="path25"
       inkscape:connector-curvature="0"
       style="vector-effect:non-scaling-stroke;fill:#a80202;stroke:#a80202;stroke-width:1;stroke-linecap:square;stroke-linejoin:miter;stroke-miterlimit:3" />
    <path
       d="m 260,196.299 v 23.094 l 80,-46.188 v 323.316 l -60,34.641 v 23.094 l 80,-46.188 V 138.564 Z"
       stroke-miterlimit="3"
       id="path27"
       inkscape:connector-curvature="0"
       style="vector-effect:non-scaling-stroke;fill:#790000;stroke:#790000;stroke-width:1;stroke-linecap:square;stroke-linejoin:miter;stroke-miterlimit:3" />
    <path
       d="m 189.213,239.765 20.574,11.878 c 1.619,0.935 2.933,3.212 2.933,5.081 v 8.491 c 0,1.869 -1.314,2.628 -2.933,1.694 l -20.574,-11.878 c -1.619,-0.935 -2.933,-3.212 -2.933,-5.081 v -8.491 c 0,-1.869 1.314,-2.628 2.933,-1.694 z"
       id="path29"
       inkscape:connector-curvature="0"
       style="fill:#ffffff" />
    <path
       d="m 192.152,267.495 13.696,7.713 c 1.216,0.684 2.203,2.373 2.203,3.768 v 8.162 c 0,1.396 -0.968,1.941 -2.161,1.217 l -13.78,-8.365 c -1.193,-0.724 -2.161,-2.445 -2.161,-3.84 v -7.367 c 0,-1.395 0.987,-1.972 2.203,-1.288 z"
       id="path31"
       inkscape:connector-curvature="0"
       style="fill:#27426c" />
  </g>
</svg>
