<?xml version="1.0" encoding="iso-8859-1"?>
<!-- Generator: Adobe Illustrator 22.1.0, SVG Export Plug-In . SVG Version: 6.00 Build 0)  -->
<svg xmlns="http://www.w3.org/2000/svg" xmlns:xlink="http://www.w3.org/1999/xlink" version="1.1" id="Layer_3" x="0px" y="0px" viewBox="0 0 64 64" style="enable-background:new 0 0 64 64;" xml:space="preserve" width="512" height="512">
<g>
	<rect x="2" y="15" style="fill:#D8DCE4;" width="60" height="34"/>
	<path style="fill:#FFFFFF;" d="M2,39.562C7.412,43.543,14.822,46,23,46c16.569,0,30-10.074,30-22.5c0-3.009-0.793-5.877-2.222-8.5   H2V39.562z"/>
	<g>
		<rect x="24" y="18" style="fill:#434E5C;" width="2" height="22"/>
	</g>
	<g>
		<rect x="14" y="18" style="fill:#434E5C;" width="2" height="22"/>
	</g>
	<g>
		<rect x="28" y="18" style="fill:#434E5C;" width="2" height="22"/>
	</g>
	<g>
		<rect x="38" y="18" style="fill:#434E5C;" width="2" height="22"/>
	</g>
	<g>
		<rect x="48" y="18" style="fill:#434E5C;" width="2" height="22"/>
	</g>
	<g>
		<rect x="9" y="27" transform="matrix(-1.836970e-16 1 -1 -1.836970e-16 49 9)" style="fill:#434E5C;" width="22" height="4"/>
	</g>
	<g>
		<rect x="-4" y="30" transform="matrix(-1.836970e-16 1 -1 -1.836970e-16 42 22)" style="fill:#434E5C;" width="28" height="4"/>
	</g>
	<g>
		<rect x="40" y="30" transform="matrix(-1.836970e-16 1 -1 -1.836970e-16 86 -22)" style="fill:#434E5C;" width="28" height="4"/>
	</g>
	<g>
		<rect x="23" y="27" transform="matrix(-1.836970e-16 1 -1 -1.836970e-16 63 -5)" style="fill:#434E5C;" width="22" height="4"/>
	</g>
	<g>
		<rect x="33" y="27" transform="matrix(-1.836970e-16 1 -1 -1.836970e-16 73 -15)" style="fill:#434E5C;" width="22" height="4"/>
	</g>
</g>
</svg>
