<!--?xml Version="1.0" encoding="UTF-8" standalone="no"?-->
<!-- Generator: Adobe Illustrator 19.0.0, SVG Export Plug-In . SVG Version: 6.00 Build 0)  -->

<svg
   xmlns:dc="http://purl.org/dc/elements/1.1/"
   xmlns:cc="http://creativecommons.org/ns#"
   xmlns:rdf="http://www.w3.org/1999/02/22-rdf-syntax-ns#"
   xmlns:svg="http://www.w3.org/2000/svg"
   xmlns="http://www.w3.org/2000/svg"
   xmlns:sodipodi="http://sodipodi.sourceforge.net/DTD/sodipodi-0.dtd"
   xmlns:inkscape="http://www.inkscape.org/namespaces/inkscape"
   Version="1.1"
   id="Layer_1"
   x="0px"
   y="0px"
   viewBox="0 0 512 512"
   style="enable-background:new 0 0 512 512;"
   xml:space="preserve"
   sodipodi:docname="Servidor.svg"
   inkscape:Version="0.92.4 (5da689c313, 2019-01-14)"><metadata
   id="metadata145"><rdf:RDF><cc:Work
       rdf:about=""><dc:format>image/svg+xml</dc:format><dc:type
         rdf:resource="http://purl.org/dc/dcmitype/StillImage" /><dc:title /></cc:Work></rdf:RDF></metadata><defs
   id="defs143" /><sodipodi:namedview
   pagecolor="#ffffff"
   bordercolor="#666666"
   borderopacity="1"
   objecttolerance="10"
   gridtolerance="10"
   guidetolerance="10"
   inkscape:pageopacity="0"
   inkscape:pageshadow="2"
   inkscape:window-width="1920"
   inkscape:window-height="1027"
   id="namedview141"
   showgrid="false"
   inkscape:zoom="0.921875"
   inkscape:cx="245.5919"
   inkscape:cy="187.38279"
   inkscape:window-x="-8"
   inkscape:window-y="-8"
   inkscape:window-maximized="1"
   inkscape:current-layer="Layer_1" />



















<g
   id="g937"><polygon
     id="polygon2"
     points="423.968,389.18 423.968,71.93 299.38,0 88.032,122.82 88.032,440.07 212.62,512 "
     style="fill:#010101" /><polygon
     id="polygon4"
     points="212.62,194.749 212.62,512 88.033,440.07 88.033,122.82 "
     style="fill:#1d1d1f" /><polygon
     id="polygon6"
     points="135.631,364.148 212.406,359.486 212.406,199.851 135.631,172.428 "
     style="fill:#010101" /><polygon
     id="polygon8"
     points="100.541,429.089 100.541,148.244 200.112,205.731 200.112,486.576 "
     style="opacity:1;fill:#808080;fill-opacity:1" /><path
     id="path10"
     d="m 144.407,426.103 c 11.159,6.443 20.235,1.271 20.271,-11.552 0.036,-12.823 -8.981,-28.441 -20.139,-34.882 -11.158,-6.442 -20.235,-1.271 -20.271,11.552 -0.036,12.823 8.98,28.44 20.139,34.882 z"
     style="fill:#006872;fill-opacity:1"
     inkscape:connector-curvature="0" /><polygon
     id="polygon12"
     points="212.62,194.749 212.62,512 423.968,389.18 423.968,71.93 "
     style="fill:#010101" /><polygon
     id="polygon14"
     points="135.631,167.203 88.033,122.82 299.38,0 423.968,71.93 212.62,194.749 "
     style="fill:#3e3d43" /><polygon
     id="polygon16"
     points="135.631,167.203 135.631,358.924 88.033,283.35 88.033,122.82 "
     style="fill:#2e2e30" /><polygon
     id="polygon18"
     points="212.406,194.626 212.406,354.261 135.631,358.924 135.631,167.203 "
     style="fill:#1d1d1f" /><polygon
     id="polygon20"
     points="204.834,341.251 204.834,202.705 135.474,177.343 95.291,139.873 95.291,279.332 135.474,346.319 "
     style="fill:#a66206" /><polygon
     id="polygon22"
     points="135.474,346.319 95.291,279.332 95.291,139.873 135.474,177.343 "
     style="fill:#acabb1" /><polygon
     id="polygon24"
     points="135.474,177.343 204.834,202.705 204.834,341.251 135.474,346.319 "
     style="fill:#898890" /><polygon
     id="polygon26"
     points="395.485,373.137 395.485,272.725 391.238,261.305 296.615,316.293 296.615,425.733 308.669,423.589 "
     style="fill:#807b7c;fill-opacity:1" /><polygon
     id="polygon28"
     points="308.669,323.177 395.485,272.725 395.485,373.137 308.669,423.589 "
     style="fill:#444343;fill-opacity:1" /><polygon
     id="polygon30"
     points="395.485,272.725 391.238,261.305 296.615,316.293 308.669,323.177 "
     style="fill:#807b7c;fill-opacity:1;stroke:none" /><polygon
     id="polygon32"
     points="308.669,423.589 296.615,425.733 296.615,316.293 308.669,323.177 "
     style="fill:#706d6e;fill-opacity:1;stroke:none" /><g
     id="g38">
	<path
   id="path34"
   d="m 152.98,425.496 4.281,-2.505 c 3.061,-1.778 4.959,-5.562 4.975,-10.938 0.03,-10.822 -7.579,-24.002 -16.997,-29.44 -4.74,-2.737 -9.033,-2.99 -12.133,-1.188 l -4.281,2.505 c 0.009,-0.005 0.02,-0.01 0.03,-0.017 -3.078,1.772 -4.989,5.561 -5.004,10.953 -0.03,10.822 7.579,24.002 16.997,29.44 4.798,2.77 9.14,2.995 12.249,1.118 -0.04,0.025 -0.078,0.049 -0.117,0.072 z"
   style="fill:#898890"
   inkscape:connector-curvature="0" />
	<path
   id="path36"
   d="m 152.98,425.496 4.281,-2.505 c 3.061,-1.778 4.959,-5.562 4.975,-10.938 0.03,-10.822 -7.579,-24.002 -16.997,-29.44 -4.74,-2.737 -9.033,-2.99 -12.133,-1.188 l -4.281,2.505 c 3.1,-1.801 7.395,-1.547 12.133,1.188 9.418,5.438 17.027,18.618 16.997,29.44 -0.016,5.376 -1.914,9.159 -4.975,10.938 z"
   style="fill:#898890"
   inkscape:connector-curvature="0" />
</g><path
     id="path40"
     d="m 140.846,424.307 c 9.418,5.438 17.078,1.072 17.108,-9.749 0.03,-10.822 -7.579,-24.002 -16.997,-29.44 -9.418,-5.438 -17.078,-1.072 -17.108,9.749 -0.03,10.822 7.58,24.004 16.997,29.44 z"
     style="fill:#acabb1"
     inkscape:connector-curvature="0" /><g
     id="g106">
	<path
   id="path42"
   d="m 303.918,206.376 c -1.617,0.889 -2.956,3.1 -2.988,4.938 -0.032,1.837 1.253,2.605 2.87,1.715 1.619,-0.89 2.958,-3.103 2.99,-4.939 0.033,-1.838 -1.254,-2.604 -2.872,-1.714"
   style="fill:#2e2e30"
   inkscape:connector-curvature="0" />
	<path
   id="path44"
   d="m 315.863,199.805 c -1.62,0.891 -2.956,3.1 -2.988,4.938 -0.032,1.837 1.251,2.606 2.87,1.715 1.617,-0.889 2.956,-3.102 2.988,-4.938 0.033,-1.839 -1.253,-2.606 -2.87,-1.715"
   style="fill:#2e2e30"
   inkscape:connector-curvature="0" />
	<path
   id="path46"
   d="m 327.806,193.233 c -1.617,0.89 -2.956,3.1 -2.988,4.938 -0.032,1.837 1.253,2.605 2.87,1.715 1.619,-0.891 2.958,-3.103 2.99,-4.939 0.033,-1.838 -1.253,-2.604 -2.872,-1.714"
   style="fill:#2e2e30"
   inkscape:connector-curvature="0" />
	<path
   id="path48"
   d="m 339.752,186.662 c -1.62,0.891 -2.958,3.101 -2.99,4.939 -0.032,1.837 1.253,2.605 2.872,1.714 1.617,-0.89 2.956,-3.102 2.988,-4.938 0.033,-1.839 -1.254,-2.605 -2.87,-1.715"
   style="fill:#2e2e30"
   inkscape:connector-curvature="0" />
	<path
   id="path50"
   d="m 351.695,180.091 c -1.617,0.889 -2.956,3.1 -2.988,4.938 -0.032,1.837 1.253,2.605 2.87,1.715 1.619,-0.891 2.956,-3.102 2.988,-4.938 0.034,-1.838 -1.25,-2.605 -2.87,-1.715"
   style="fill:#2e2e30"
   inkscape:connector-curvature="0" />
	<path
   id="path52"
   d="m 363.64,173.518 c -1.62,0.891 -2.958,3.101 -2.99,4.939 -0.032,1.837 1.253,2.605 2.872,1.714 1.617,-0.89 2.956,-3.102 2.988,-4.938 0.034,-1.838 -1.252,-2.604 -2.87,-1.715"
   style="fill:#2e2e30"
   inkscape:connector-curvature="0" />
	<path
   id="path54"
   d="m 375.584,166.948 c -1.62,0.891 -2.956,3.1 -2.988,4.938 -0.032,1.837 1.252,2.606 2.87,1.715 1.62,-0.89 2.956,-3.102 2.988,-4.938 0.033,-1.838 -1.25,-2.606 -2.87,-1.715"
   style="fill:#2e2e30"
   inkscape:connector-curvature="0" />
	<path
   id="path56"
   d="m 387.527,160.377 c -1.617,0.89 -2.956,3.1 -2.988,4.938 -0.032,1.837 1.253,2.605 2.87,1.715 1.619,-0.891 2.958,-3.103 2.99,-4.939 0.034,-1.838 -1.252,-2.604 -2.872,-1.714"
   style="fill:#2e2e30"
   inkscape:connector-curvature="0" />
	<path
   id="path58"
   d="m 303.717,217.649 c -1.617,0.889 -2.956,3.102 -2.988,4.94 -0.032,1.837 1.253,2.605 2.87,1.715 1.62,-0.891 2.958,-3.103 2.99,-4.939 0.033,-1.838 -1.253,-2.606 -2.872,-1.716"
   style="fill:#2e2e30"
   inkscape:connector-curvature="0" />
	<path
   id="path60"
   d="m 315.662,211.078 c -1.619,0.891 -2.956,3.102 -2.988,4.94 -0.032,1.837 1.251,2.606 2.87,1.715 1.617,-0.89 2.956,-3.102 2.988,-4.938 0.033,-1.838 -1.252,-2.607 -2.87,-1.717"
   style="fill:#2e2e30"
   inkscape:connector-curvature="0" />
	<path
   id="path62"
   d="m 327.605,204.507 c -1.617,0.89 -2.956,3.102 -2.988,4.94 -0.032,1.837 1.253,2.605 2.87,1.715 1.62,-0.89 2.958,-3.103 2.99,-4.939 0.033,-1.839 -1.252,-2.607 -2.872,-1.716"
   style="fill:#2e2e30"
   inkscape:connector-curvature="0" />
	<path
   id="path64"
   d="m 339.551,197.935 c -1.619,0.891 -2.958,3.103 -2.99,4.941 -0.032,1.837 1.253,2.605 2.872,1.714 1.617,-0.89 2.956,-3.102 2.988,-4.938 0.033,-1.839 -1.253,-2.607 -2.87,-1.717"
   style="fill:#2e2e30"
   inkscape:connector-curvature="0" />
	<path
   id="path66"
   d="m 351.494,191.364 c -1.617,0.89 -2.956,3.102 -2.988,4.94 -0.032,1.837 1.253,2.605 2.87,1.715 1.62,-0.891 2.956,-3.102 2.988,-4.938 0.033,-1.838 -1.25,-2.607 -2.87,-1.717"
   style="fill:#2e2e30"
   inkscape:connector-curvature="0" />
	<path
   id="path68"
   d="m 363.44,184.792 c -1.619,0.891 -2.958,3.103 -2.99,4.941 -0.032,1.837 1.253,2.605 2.872,1.714 1.617,-0.889 2.956,-3.102 2.988,-4.938 0.033,-1.838 -1.253,-2.606 -2.87,-1.717"
   style="fill:#2e2e30"
   inkscape:connector-curvature="0" />
	<path
   id="path70"
   d="m 375.384,178.222 c -1.62,0.89 -2.956,3.102 -2.988,4.94 -0.032,1.837 1.251,2.606 2.87,1.715 1.619,-0.891 2.956,-3.102 2.988,-4.938 0.032,-1.839 -1.252,-2.609 -2.87,-1.717"
   style="fill:#2e2e30"
   inkscape:connector-curvature="0" />
	<path
   id="path72"
   d="m 387.327,171.65 c -1.617,0.89 -2.956,3.102 -2.988,4.94 -0.032,1.837 1.253,2.605 2.87,1.715 1.62,-0.891 2.958,-3.103 2.99,-4.939 0.032,-1.838 -1.253,-2.606 -2.872,-1.716"
   style="fill:#2e2e30"
   inkscape:connector-curvature="0" />
	<path
   id="path74"
   d="m 303.516,228.926 c -1.617,0.89 -2.956,3.102 -2.988,4.94 -0.032,1.837 1.253,2.605 2.87,1.715 1.619,-0.891 2.958,-3.103 2.99,-4.939 0.033,-1.84 -1.253,-2.608 -2.872,-1.716"
   style="fill:#2e2e30"
   inkscape:connector-curvature="0" />
	<path
   id="path76"
   d="m 315.462,222.353 c -1.62,0.89 -2.956,3.102 -2.988,4.94 -0.032,1.837 1.251,2.606 2.87,1.715 1.617,-0.89 2.956,-3.102 2.988,-4.938 0.032,-1.838 -1.253,-2.606 -2.87,-1.717"
   style="fill:#2e2e30"
   inkscape:connector-curvature="0" />
	<path
   id="path78"
   d="m 327.405,215.782 c -1.617,0.889 -2.956,3.102 -2.988,4.94 -0.032,1.837 1.253,2.605 2.87,1.715 1.619,-0.891 2.958,-3.103 2.99,-4.939 0.032,-1.838 -1.253,-2.606 -2.872,-1.716"
   style="fill:#2e2e30"
   inkscape:connector-curvature="0" />
	<path
   id="path80"
   d="m 339.351,209.211 c -1.62,0.89 -2.958,3.103 -2.99,4.941 -0.032,1.837 1.253,2.605 2.872,1.714 1.617,-0.89 2.956,-3.102 2.988,-4.938 0.033,-1.839 -1.254,-2.608 -2.87,-1.717"
   style="fill:#2e2e30"
   inkscape:connector-curvature="0" />
	<path
   id="path82"
   d="m 351.294,202.639 c -1.617,0.889 -2.956,3.102 -2.988,4.94 -0.032,1.837 1.253,2.605 2.87,1.715 1.619,-0.891 2.956,-3.102 2.988,-4.938 0.033,-1.838 -1.251,-2.607 -2.87,-1.717"
   style="fill:#2e2e30"
   inkscape:connector-curvature="0" />
	<path
   id="path84"
   d="m 363.239,196.068 c -1.62,0.891 -2.958,3.103 -2.99,4.941 -0.032,1.837 1.253,2.605 2.872,1.714 1.617,-0.889 2.956,-3.102 2.988,-4.938 0.034,-1.839 -1.253,-2.607 -2.87,-1.717"
   style="fill:#2e2e30"
   inkscape:connector-curvature="0" />
	<path
   id="path86"
   d="m 375.183,189.497 c -1.619,0.891 -2.956,3.102 -2.988,4.94 -0.032,1.837 1.251,2.606 2.87,1.715 1.619,-0.89 2.956,-3.102 2.988,-4.938 0.033,-1.838 -1.251,-2.607 -2.87,-1.717"
   style="fill:#2e2e30"
   inkscape:connector-curvature="0" />
	<path
   id="path88"
   d="m 387.126,182.926 c -1.617,0.89 -2.956,3.102 -2.988,4.94 -0.032,1.837 1.253,2.605 2.87,1.715 1.62,-0.891 2.958,-3.103 2.99,-4.939 0.033,-1.839 -1.252,-2.607 -2.872,-1.716"
   style="fill:#2e2e30"
   inkscape:connector-curvature="0" />
	<path
   id="path90"
   d="m 303.315,240.201 c -1.617,0.89 -2.956,3.102 -2.988,4.94 -0.032,1.837 1.253,2.605 2.87,1.715 1.62,-0.89 2.958,-3.103 2.99,-4.939 0.034,-1.839 -1.253,-2.607 -2.872,-1.716"
   style="fill:#2e2e30"
   inkscape:connector-curvature="0" />
	<path
   id="path92"
   d="m 315.261,233.629 c -1.619,0.89 -2.956,3.102 -2.988,4.94 -0.032,1.837 1.251,2.606 2.87,1.715 1.617,-0.89 2.956,-3.102 2.988,-4.938 0.033,-1.839 -1.254,-2.607 -2.87,-1.717"
   style="fill:#2e2e30"
   inkscape:connector-curvature="0" />
	<path
   id="path94"
   d="m 327.204,227.057 c -1.617,0.89 -2.956,3.102 -2.988,4.94 -0.032,1.837 1.253,2.605 2.87,1.715 1.62,-0.891 2.958,-3.103 2.99,-4.939 0.033,-1.838 -1.252,-2.606 -2.872,-1.716"
   style="fill:#2e2e30"
   inkscape:connector-curvature="0" />
	<path
   id="path96"
   d="m 339.149,220.486 c -1.619,0.89 -2.958,3.103 -2.99,4.941 -0.032,1.837 1.253,2.605 2.872,1.714 1.617,-0.889 2.956,-3.102 2.988,-4.938 0.034,-1.838 -1.252,-2.607 -2.87,-1.717"
   style="fill:#2e2e30"
   inkscape:connector-curvature="0" />
	<path
   id="path98"
   d="m 351.093,213.915 c -1.617,0.889 -2.956,3.102 -2.988,4.94 -0.032,1.837 1.253,2.605 2.87,1.715 1.62,-0.891 2.956,-3.102 2.988,-4.938 0.033,-1.838 -1.251,-2.608 -2.87,-1.717"
   style="fill:#2e2e30"
   inkscape:connector-curvature="0" />
	<path
   id="path100"
   d="m 363.038,207.343 c -1.619,0.89 -2.958,3.103 -2.99,4.941 -0.032,1.837 1.253,2.605 2.872,1.714 1.617,-0.889 2.956,-3.102 2.988,-4.938 0.034,-1.839 -1.252,-2.607 -2.87,-1.717"
   style="fill:#2e2e30"
   inkscape:connector-curvature="0" />
	<path
   id="path102"
   d="m 374.982,200.772 c -1.62,0.891 -2.956,3.102 -2.988,4.94 -0.032,1.837 1.251,2.606 2.87,1.715 1.619,-0.891 2.956,-3.102 2.988,-4.938 0.033,-1.838 -1.251,-2.607 -2.87,-1.717"
   style="fill:#2e2e30"
   inkscape:connector-curvature="0" />
	<path
   id="path104"
   d="m 386.925,194.201 c -1.617,0.89 -2.956,3.102 -2.988,4.94 -0.032,1.837 1.253,2.605 2.87,1.715 1.619,-0.89 2.958,-3.103 2.99,-4.939 0.033,-1.838 -1.252,-2.606 -2.872,-1.716"
   style="fill:#2e2e30"
   inkscape:connector-curvature="0" />
</g><path
     id="path108"
     d="m 356.544,381.138 c -15.852,9.152 -28.744,1.806 -28.796,-16.41 -0.051,-18.215 12.757,-40.4 28.609,-49.553 15.852,-9.152 28.744,-1.806 28.796,16.41 0.051,18.216 -12.757,40.401 -28.609,49.553 z"
     style="fill:#726b6d;fill-opacity:1"
     inkscape:connector-curvature="0" /></g>
<g
   id="g110">
</g>
<g
   id="g112">
</g>
<g
   id="g114">
</g>
<g
   id="g116">
</g>
<g
   id="g118">
</g>
<g
   id="g120">
</g>
<g
   id="g122">
</g>
<g
   id="g124">
</g>
<g
   id="g126">
</g>
<g
   id="g128">
</g>
<g
   id="g130">
</g>
<g
   id="g132">
</g>
<g
   id="g134">
</g>
<g
   id="g136">
</g>
<g
   id="g138">
</g>
</svg>